<svg xmlns="http://www.w3.org/2000/svg" viewBox="0 0 48 48" width="256" height="256">
  <title>Markdown document opened by Margin</title>
  <path d="M11 3h19l10 10v29a3 3 0 0 1-3 3H11a3 3 0 0 1-3-3V6a3 3 0 0 1 3-3Z" fill="#FFFFFF" stroke="#B9C2CE" stroke-width="0.75"/>
  <path d="M30 3v7a3 3 0 0 0 3 3h7" fill="#EEF1F5" stroke="#B9C2CE" stroke-width="0.75" stroke-linejoin="round"/>
  <rect x="14.5" y="3.4" width="1.75" height="41.2" fill="#2167D5"/>
  <!-- type label: the one place a glyph is allowed, drawn as geometry (M + down arrow) -->
  <path d="M20 36v-8l3.5 4 3.5-4v8" fill="none" stroke="#22252B" stroke-width="1.5" stroke-linecap="round" stroke-linejoin="round"/>
  <path d="M32 28v8m-2.5-2.5L32 36l2.5-2.5" fill="none" stroke="#22252B" stroke-width="1.5" stroke-linecap="round" stroke-linejoin="round"/>
</svg>
